<?xml version="1.0" encoding="utf-8"?>
<!-- Generator: Adobe Illustrator 23.0.4, SVG Export Plug-In . SVG Version: 6.00 Build 0)  -->
<svg version="1.1" id="Capa_1" xmlns="http://www.w3.org/2000/svg" xmlns:xlink="http://www.w3.org/1999/xlink" x="0px" y="0px"
	 viewBox="0 0 385 385" style="enable-background:new 0 0 385 385;" xml:space="preserve">
<style type="text/css">
	.st0{fill:#FFFFFF;}
</style>
<g>
	<g id="Menu">
		<path class="st0" d="M12,84.2h360.9c6.6,0,12-5.4,12-12c0-6.6-5.4-12-12-12H12c-6.6,0-12,5.4-12,12S5.4,84.2,12,84.2z"/>
		<path class="st0" d="M372.9,180.5H12c-6.6,0-12,5.4-12,12s5.4,12,12,12h360.9c6.6,0,12-5.4,12-12S379.6,180.5,372.9,180.5z"/>
		<path class="st0" d="M372.9,300.8H12c-6.6,0-12,5.4-12,12c0,6.6,5.4,12,12,12h360.9c6.6,0,12-5.4,12-12
			C385,306.1,379.6,300.8,372.9,300.8z"/>
	</g>
</g>
</svg>
